<svg width="480" height="140" viewBox="0 0 480 140" fill="none" xmlns="http://www.w3.org/2000/svg">
<g clip-path="url(#clip0_64_2)">
<rect width="480" height="140" fill="#171717"/>
<rect width="480" height="140" fill="url(#paint0_linear_64_2)" fill-opacity="0.2"/>
<path opacity="0.08" d="M430 136C495.17 136 548 83.1696 548 18C548 -47.1696 495.17 -100 430 -100C364.83 -100 312 -47.1696 312 18C312 83.1696 364.83 136 430 136Z" fill="url(#paint1_linear_64_2)"/>
<path opacity="0.06" d="M46 252C111.17 252 164 199.17 164 134C164 68.8304 111.17 16 46 16C-19.1696 16 -72 68.8304 -72 134C-72 199.17 -19.1696 252 46 252Z" fill="url(#paint2_linear_64_2)"/>
<rect x="80" y="26" width="64.2218" height="64.2218" rx="10.2755" fill="#F472B6" fill-opacity="0.25"/>
<rect x="79.8263" y="25.8263" width="64.5693" height="64.5693" rx="10.4492" stroke="#BA0061" stroke-opacity="0.75" stroke-width="0.3475"/>
<rect x="90.9111" y="26" width="64.2218" height="64.2218" rx="10.2755" fill="#F472B6" fill-opacity="0.5"/>
<rect x="90.7374" y="25.8263" width="64.5693" height="64.5693" rx="10.4492" stroke="#840045" stroke-opacity="0.75" stroke-width="0.3475"/>
<rect x="102.309" y="26" width="64.2218" height="64.2218" rx="10.2755" fill="#F472B6"/>
<rect x="102.135" y="25.8263" width="64.5693" height="64.5693" rx="10.4492" stroke="#440024" stroke-opacity="0.75" stroke-width="0.3475"/>
<path d="M206.514 68.9356H225.654V75.6908H198.383V35.4725H206.514V68.9356Z" fill="white"/>
<path d="M232.027 50.9844C234.695 48.274 238.365 46.9188 243.035 46.9188C247.622 46.9188 251.187 48.274 253.731 50.9844C256.316 53.6531 257.609 57.2183 257.609 61.6801C257.609 62.4307 257.567 63.2021 257.484 63.9944H235.905C236.071 65.8291 236.822 67.2886 238.156 68.3727C239.532 69.4569 241.2 69.999 243.16 69.999C244.078 69.999 244.891 69.8947 245.6 69.6862C246.35 69.4777 246.913 69.2484 247.288 68.9982C247.705 68.7063 248.039 68.4144 248.289 68.1225C248.581 67.8306 248.769 67.5804 248.852 67.3719L248.977 67.0592H257.046C257.004 67.3094 256.9 67.643 256.733 68.06C256.608 68.477 256.212 69.2275 255.545 70.3117C254.919 71.3542 254.148 72.2924 253.23 73.1264C252.313 73.9186 250.958 74.6484 249.165 75.3155C247.372 75.9827 245.349 76.3163 243.098 76.3163C238.594 76.3163 234.946 75.0028 232.152 72.3758C229.4 69.7071 228.024 66.1418 228.024 61.6801C228.024 57.3017 229.358 53.7365 232.027 50.9844ZM249.79 58.6152C249.79 58.5735 249.79 58.511 249.79 58.4276C249.79 56.8431 249.165 55.5921 247.914 54.6747C246.663 53.7157 245.058 53.2361 243.098 53.2361C241.096 53.2361 239.449 53.7365 238.156 54.7373C236.905 55.738 236.155 57.0307 235.905 58.6152H249.79Z" fill="white"/>
<path d="M270.296 47.5443V51.5473C272.089 48.5867 274.883 47.0439 278.677 46.9188C278.844 46.9188 279.032 46.9188 279.24 46.9188C284.286 46.9188 287.684 48.6493 289.435 52.1103C291.604 48.7744 294.815 47.0439 299.068 46.9188C299.318 46.9188 299.547 46.9188 299.756 46.9188C303.926 46.9188 306.907 48.0655 308.7 50.3589C310.493 52.6107 311.39 55.9674 311.39 60.4291V75.6908H303.321V60.4291C303.321 58.094 302.842 56.3218 301.882 55.1126C300.965 53.9033 299.672 53.2987 298.004 53.2987C295.461 53.2987 293.647 54.0701 292.563 55.6129C291.52 57.1558 290.999 59.5535 290.999 62.806V75.6908H282.93V60.4291C282.93 58.094 282.451 56.3218 281.492 55.1126C280.574 53.9033 279.282 53.2987 277.614 53.2987C275.07 53.2987 273.256 54.0701 272.172 55.6129C271.13 57.1558 270.609 59.5535 270.609 62.806V75.6908H262.54V47.5443H270.296Z" fill="white"/>
<path d="M324.703 47.5443V51.5473C326.496 48.5867 329.289 47.0439 333.084 46.9188C333.251 46.9188 333.438 46.9188 333.647 46.9188C338.693 46.9188 342.091 48.6493 343.842 52.1103C346.011 48.7744 349.221 47.0439 353.475 46.9188C353.725 46.9188 353.954 46.9188 354.163 46.9188C358.333 46.9188 361.314 48.0655 363.107 50.3589C364.9 52.6107 365.797 55.9674 365.797 60.4291V75.6908H357.728V60.4291C357.728 58.094 357.248 56.3218 356.289 55.1126C355.372 53.9033 354.079 53.2987 352.411 53.2987C349.868 53.2987 348.054 54.0701 346.97 55.6129C345.927 57.1558 345.406 59.5535 345.406 62.806V75.6908H337.337V60.4291C337.337 58.094 336.858 56.3218 335.899 55.1126C334.981 53.9033 333.689 53.2987 332.021 53.2987C329.477 53.2987 327.663 54.0701 326.579 55.6129C325.537 57.1558 325.015 59.5535 325.015 62.806V75.6908H316.947V47.5443H324.703Z" fill="white"/>
<path d="M374.418 50.9844C377.087 48.274 380.757 46.9188 385.427 46.9188C390.014 46.9188 393.579 48.274 396.123 50.9844C398.708 53.6531 400.001 57.2183 400.001 61.6801C400.001 62.4307 399.959 63.2021 399.875 63.9944H378.296C378.463 65.8291 379.214 67.2886 380.548 68.3727C381.924 69.4569 383.592 69.999 385.552 69.999C386.469 69.999 387.282 69.8947 387.991 69.6862C388.742 69.4777 389.305 69.2484 389.68 68.9982C390.097 68.7063 390.431 68.4144 390.681 68.1225C390.973 67.8306 391.16 67.5804 391.244 67.3719L391.369 67.0592H399.438C399.396 67.3094 399.292 67.643 399.125 68.06C399 68.477 398.604 69.2275 397.936 70.3117C397.311 71.3542 396.54 72.2924 395.622 73.1264C394.705 73.9186 393.35 74.6484 391.557 75.3155C389.764 75.9827 387.741 76.3163 385.489 76.3163C380.986 76.3163 377.337 75.0028 374.544 72.3758C371.791 69.7071 370.415 66.1418 370.415 61.6801C370.415 57.3017 371.75 53.7365 374.418 50.9844ZM392.182 58.6152C392.182 58.5735 392.182 58.511 392.182 58.4276C392.182 56.8431 391.557 55.5921 390.306 54.6747C389.055 53.7157 387.449 53.2361 385.489 53.2361C383.488 53.2361 381.841 53.7365 380.548 54.7373C379.297 55.738 378.547 57.0307 378.296 58.6152H392.182Z" fill="white"/>
<path d="M121.854 124H118.712V113.818H121.994C122.981 113.818 123.827 114.022 124.529 114.43C125.232 114.834 125.77 115.416 126.145 116.175C126.52 116.93 126.707 117.835 126.707 118.889C126.707 119.95 126.518 120.863 126.14 121.629C125.762 122.391 125.212 122.978 124.489 123.388C123.767 123.796 122.889 124 121.854 124ZM119.945 122.906H121.775C122.617 122.906 123.314 122.744 123.868 122.419C124.421 122.094 124.834 121.632 125.106 121.032C125.378 120.432 125.514 119.718 125.514 118.889C125.514 118.067 125.379 117.36 125.111 116.766C124.842 116.17 124.441 115.712 123.908 115.394C123.374 115.073 122.71 114.912 121.914 114.912H119.945V122.906ZM131.718 124.159C131.029 124.159 130.424 123.995 129.903 123.667C129.386 123.339 128.982 122.88 128.69 122.29C128.402 121.7 128.258 121.01 128.258 120.222C128.258 119.426 128.402 118.732 128.69 118.138C128.982 117.545 129.386 117.085 129.903 116.756C130.424 116.428 131.029 116.264 131.718 116.264C132.408 116.264 133.011 116.428 133.528 116.756C134.048 117.085 134.453 117.545 134.741 118.138C135.033 118.732 135.178 119.426 135.178 120.222C135.178 121.01 135.033 121.7 134.741 122.29C134.453 122.88 134.048 123.339 133.528 123.667C133.011 123.995 132.408 124.159 131.718 124.159ZM131.718 123.105C132.242 123.105 132.673 122.971 133.011 122.702C133.349 122.434 133.599 122.081 133.761 121.643C133.924 121.206 134.005 120.732 134.005 120.222C134.005 119.711 133.924 119.236 133.761 118.795C133.599 118.354 133.349 117.998 133.011 117.726C132.673 117.454 132.242 117.318 131.718 117.318C131.194 117.318 130.764 117.454 130.426 117.726C130.087 117.998 129.837 118.354 129.675 118.795C129.512 119.236 129.431 119.711 129.431 120.222C129.431 120.732 129.512 121.206 129.675 121.643C129.837 122.081 130.087 122.434 130.426 122.702C130.764 122.971 131.194 123.105 131.718 123.105ZM140.072 124.159C139.356 124.159 138.739 123.99 138.222 123.652C137.705 123.314 137.307 122.848 137.029 122.255C136.751 121.662 136.611 120.984 136.611 120.222C136.611 119.446 136.754 118.762 137.039 118.168C137.327 117.572 137.728 117.106 138.242 116.771C138.759 116.433 139.362 116.264 140.052 116.264C140.589 116.264 141.073 116.364 141.503 116.562C141.934 116.761 142.287 117.04 142.562 117.398C142.838 117.756 143.008 118.173 143.074 118.651H141.901C141.812 118.303 141.613 117.994 141.305 117.726C141 117.454 140.589 117.318 140.072 117.318C139.614 117.318 139.213 117.437 138.869 117.676C138.527 117.911 138.26 118.245 138.068 118.675C137.879 119.103 137.785 119.605 137.785 120.182C137.785 120.772 137.878 121.286 138.063 121.723C138.252 122.161 138.517 122.5 138.859 122.742C139.203 122.984 139.608 123.105 140.072 123.105C140.377 123.105 140.653 123.052 140.902 122.946C141.15 122.84 141.361 122.688 141.533 122.489C141.706 122.29 141.828 122.051 141.901 121.773H143.074C143.008 122.223 142.844 122.629 142.582 122.991C142.324 123.349 141.981 123.634 141.553 123.846C141.129 124.055 140.635 124.159 140.072 124.159ZM149.602 120.878V116.364H150.775V124H149.602V122.707H149.523C149.344 123.095 149.065 123.425 148.687 123.697C148.31 123.965 147.832 124.099 147.256 124.099C146.778 124.099 146.354 123.995 145.983 123.786C145.612 123.574 145.32 123.256 145.108 122.832C144.896 122.404 144.79 121.866 144.79 121.216V116.364H145.963V121.136C145.963 121.693 146.119 122.137 146.43 122.469C146.745 122.8 147.146 122.966 147.633 122.966C147.925 122.966 148.222 122.891 148.523 122.742C148.828 122.593 149.083 122.364 149.289 122.056C149.498 121.748 149.602 121.355 149.602 120.878ZM152.924 124V116.364H154.058V117.557H154.157C154.316 117.149 154.573 116.833 154.928 116.607C155.283 116.379 155.709 116.264 156.206 116.264C156.709 116.264 157.129 116.379 157.464 116.607C157.802 116.833 158.065 117.149 158.254 117.557H158.334C158.529 117.162 158.822 116.849 159.214 116.617C159.605 116.382 160.074 116.264 160.62 116.264C161.303 116.264 161.862 116.478 162.296 116.906C162.73 117.33 162.947 117.991 162.947 118.889V124H161.774V118.889C161.774 118.326 161.62 117.923 161.312 117.681C161.003 117.439 160.64 117.318 160.223 117.318C159.686 117.318 159.27 117.481 158.975 117.805C158.68 118.127 158.532 118.535 158.532 119.028V124H157.339V118.77C157.339 118.336 157.198 117.986 156.917 117.721C156.635 117.452 156.272 117.318 155.828 117.318C155.523 117.318 155.238 117.399 154.973 117.562C154.711 117.724 154.499 117.95 154.336 118.238C154.177 118.523 154.098 118.853 154.098 119.227V124H152.924ZM168.294 124.159C167.558 124.159 166.924 123.997 166.39 123.672C165.86 123.344 165.45 122.886 165.162 122.3C164.877 121.71 164.734 121.024 164.734 120.241C164.734 119.459 164.877 118.77 165.162 118.173C165.45 117.573 165.851 117.106 166.365 116.771C166.882 116.433 167.485 116.264 168.175 116.264C168.573 116.264 168.965 116.33 169.353 116.463C169.741 116.596 170.094 116.811 170.412 117.109C170.73 117.404 170.984 117.795 171.173 118.283C171.362 118.77 171.456 119.37 171.456 120.082V120.58H165.57V119.565H170.263C170.263 119.134 170.177 118.75 170.004 118.412C169.835 118.074 169.593 117.807 169.278 117.612C168.967 117.416 168.599 117.318 168.175 117.318C167.707 117.318 167.303 117.434 166.962 117.666C166.624 117.895 166.363 118.193 166.181 118.561C165.999 118.929 165.908 119.323 165.908 119.744V120.42C165.908 120.997 166.007 121.486 166.206 121.887C166.408 122.285 166.688 122.588 167.046 122.797C167.404 123.002 167.82 123.105 168.294 123.105C168.602 123.105 168.881 123.062 169.129 122.976C169.381 122.886 169.598 122.754 169.781 122.578C169.963 122.399 170.104 122.177 170.203 121.912L171.337 122.23C171.217 122.615 171.017 122.953 170.735 123.244C170.453 123.533 170.105 123.758 169.691 123.92C169.277 124.08 168.811 124.159 168.294 124.159ZM174.414 119.406V124H173.241V116.364H174.374V117.557H174.474C174.653 117.169 174.925 116.857 175.289 116.622C175.654 116.384 176.124 116.264 176.701 116.264C177.218 116.264 177.671 116.37 178.058 116.582C178.446 116.791 178.748 117.109 178.963 117.537C179.179 117.961 179.286 118.498 179.286 119.148V124H178.113V119.227C178.113 118.627 177.957 118.16 177.646 117.825C177.334 117.487 176.907 117.318 176.363 117.318C175.988 117.318 175.654 117.399 175.359 117.562C175.067 117.724 174.837 117.961 174.668 118.273C174.499 118.584 174.414 118.962 174.414 119.406ZM184.751 116.364V117.358H180.794V116.364H184.751ZM181.947 114.534H183.121V121.812C183.121 122.144 183.169 122.393 183.265 122.558C183.364 122.721 183.49 122.83 183.643 122.886C183.798 122.939 183.963 122.966 184.135 122.966C184.264 122.966 184.37 122.959 184.453 122.946C184.536 122.929 184.602 122.916 184.652 122.906L184.891 123.96C184.811 123.99 184.7 124.02 184.557 124.05C184.415 124.083 184.234 124.099 184.016 124.099C183.684 124.099 183.359 124.028 183.041 123.886C182.726 123.743 182.464 123.526 182.256 123.234C182.05 122.943 181.947 122.575 181.947 122.131V114.534ZM188.763 124.179C188.28 124.179 187.84 124.088 187.446 123.906C187.052 123.72 186.738 123.453 186.506 123.105C186.274 122.754 186.158 122.33 186.158 121.832C186.158 121.395 186.244 121.04 186.417 120.768C186.589 120.493 186.82 120.278 187.108 120.122C187.396 119.966 187.714 119.85 188.062 119.774C188.414 119.695 188.767 119.632 189.121 119.585C189.585 119.526 189.962 119.481 190.25 119.451C190.542 119.418 190.754 119.363 190.886 119.287C191.022 119.211 191.09 119.078 191.09 118.889V118.849C191.09 118.359 190.956 117.978 190.687 117.706C190.422 117.434 190.02 117.298 189.479 117.298C188.919 117.298 188.48 117.421 188.162 117.666C187.844 117.911 187.62 118.173 187.491 118.452L186.377 118.054C186.576 117.59 186.841 117.229 187.172 116.97C187.507 116.708 187.872 116.526 188.266 116.423C188.664 116.317 189.055 116.264 189.44 116.264C189.685 116.264 189.967 116.294 190.285 116.354C190.606 116.41 190.916 116.528 191.214 116.707C191.516 116.886 191.766 117.156 191.965 117.517C192.164 117.878 192.263 118.362 192.263 118.969V124H191.09V122.966H191.03C190.951 123.132 190.818 123.309 190.633 123.498C190.447 123.687 190.2 123.848 189.892 123.98C189.584 124.113 189.208 124.179 188.763 124.179ZM188.942 123.125C189.406 123.125 189.797 123.034 190.116 122.852C190.437 122.669 190.679 122.434 190.842 122.146C191.007 121.857 191.09 121.554 191.09 121.236V120.162C191.04 120.222 190.931 120.276 190.762 120.326C190.596 120.372 190.404 120.414 190.185 120.45C189.97 120.483 189.759 120.513 189.554 120.54C189.352 120.563 189.188 120.583 189.062 120.599C188.757 120.639 188.472 120.704 188.207 120.793C187.945 120.879 187.733 121.01 187.57 121.186C187.411 121.358 187.332 121.594 187.332 121.892C187.332 122.3 187.482 122.608 187.784 122.817C188.089 123.022 188.475 123.125 188.942 123.125ZM197.726 116.364V117.358H193.769V116.364H197.726ZM194.922 114.534H196.095V121.812C196.095 122.144 196.143 122.393 196.239 122.558C196.339 122.721 196.465 122.83 196.617 122.886C196.773 122.939 196.937 122.966 197.109 122.966C197.239 122.966 197.345 122.959 197.428 122.946C197.511 122.929 197.577 122.916 197.627 122.906L197.865 123.96C197.786 123.99 197.675 124.02 197.532 124.05C197.39 124.083 197.209 124.099 196.99 124.099C196.659 124.099 196.334 124.028 196.016 123.886C195.701 123.743 195.439 123.526 195.23 123.234C195.025 122.943 194.922 122.575 194.922 122.131V114.534ZM199.491 124V116.364H200.664V124H199.491ZM200.087 115.091C199.859 115.091 199.662 115.013 199.496 114.857C199.333 114.701 199.252 114.514 199.252 114.295C199.252 114.077 199.333 113.889 199.496 113.734C199.662 113.578 199.859 113.5 200.087 113.5C200.316 113.5 200.512 113.578 200.674 113.734C200.84 113.889 200.923 114.077 200.923 114.295C200.923 114.514 200.84 114.701 200.674 114.857C200.512 115.013 200.316 115.091 200.087 115.091ZM205.915 124.159C205.226 124.159 204.621 123.995 204.101 123.667C203.584 123.339 203.179 122.88 202.888 122.29C202.599 121.7 202.455 121.01 202.455 120.222C202.455 119.426 202.599 118.732 202.888 118.138C203.179 117.545 203.584 117.085 204.101 116.756C204.621 116.428 205.226 116.264 205.915 116.264C206.605 116.264 207.208 116.428 207.725 116.756C208.245 117.085 208.65 117.545 208.938 118.138C209.23 118.732 209.376 119.426 209.376 120.222C209.376 121.01 209.23 121.7 208.938 122.29C208.65 122.88 208.245 123.339 207.725 123.667C207.208 123.995 206.605 124.159 205.915 124.159ZM205.915 123.105C206.439 123.105 206.87 122.971 207.208 122.702C207.546 122.434 207.796 122.081 207.959 121.643C208.121 121.206 208.202 120.732 208.202 120.222C208.202 119.711 208.121 119.236 207.959 118.795C207.796 118.354 207.546 117.998 207.208 117.726C206.87 117.454 206.439 117.318 205.915 117.318C205.392 117.318 204.961 117.454 204.623 117.726C204.285 117.998 204.034 118.354 203.872 118.795C203.71 119.236 203.628 119.711 203.628 120.222C203.628 120.732 203.71 121.206 203.872 121.643C204.034 122.081 204.285 122.434 204.623 122.702C204.961 122.971 205.392 123.105 205.915 123.105ZM212.34 119.406V124H211.167V116.364H212.3V117.557H212.4C212.579 117.169 212.85 116.857 213.215 116.622C213.58 116.384 214.05 116.264 214.627 116.264C215.144 116.264 215.596 116.37 215.984 116.582C216.372 116.791 216.674 117.109 216.889 117.537C217.104 117.961 217.212 118.498 217.212 119.148V124H216.039V119.227C216.039 118.627 215.883 118.16 215.571 117.825C215.26 117.487 214.832 117.318 214.289 117.318C213.914 117.318 213.58 117.399 213.285 117.562C212.993 117.724 212.763 117.961 212.593 118.273C212.424 118.584 212.34 118.962 212.34 119.406ZM230.413 117C230.304 116.665 230.159 116.365 229.98 116.1C229.805 115.832 229.594 115.603 229.349 115.414C229.107 115.225 228.832 115.081 228.524 114.982C228.215 114.882 227.877 114.832 227.509 114.832C226.906 114.832 226.358 114.988 225.864 115.3C225.37 115.611 224.977 116.07 224.686 116.677C224.394 117.283 224.248 118.027 224.248 118.909C224.248 119.791 224.396 120.535 224.691 121.141C224.986 121.748 225.385 122.207 225.889 122.518C226.393 122.83 226.959 122.986 227.589 122.986C228.172 122.986 228.686 122.862 229.13 122.613C229.578 122.361 229.926 122.006 230.174 121.549C230.426 121.088 230.552 120.546 230.552 119.923L230.93 120.003H227.867V118.909H231.745V120.003C231.745 120.841 231.566 121.571 231.208 122.19C230.854 122.81 230.363 123.291 229.737 123.632C229.114 123.97 228.398 124.139 227.589 124.139C226.688 124.139 225.895 123.927 225.213 123.503C224.533 123.079 224.003 122.475 223.622 121.693C223.244 120.911 223.055 119.983 223.055 118.909C223.055 118.104 223.163 117.379 223.378 116.737C223.597 116.09 223.905 115.54 224.303 115.086C224.701 114.632 225.171 114.284 225.715 114.042C226.258 113.8 226.857 113.679 227.509 113.679C228.046 113.679 228.547 113.76 229.011 113.923C229.478 114.082 229.894 114.309 230.259 114.604C230.627 114.895 230.933 115.245 231.179 115.653C231.424 116.057 231.593 116.506 231.686 117H230.413ZM236.9 124.159C236.164 124.159 235.529 123.997 234.995 123.672C234.465 123.344 234.056 122.886 233.767 122.3C233.482 121.71 233.34 121.024 233.34 120.241C233.34 119.459 233.482 118.77 233.767 118.173C234.056 117.573 234.457 117.106 234.971 116.771C235.488 116.433 236.091 116.264 236.78 116.264C237.178 116.264 237.571 116.33 237.959 116.463C238.346 116.596 238.699 116.811 239.017 117.109C239.336 117.404 239.589 117.795 239.778 118.283C239.967 118.77 240.062 119.37 240.062 120.082V120.58H234.175V119.565H238.868C238.868 119.134 238.782 118.75 238.61 118.412C238.441 118.074 238.199 117.807 237.884 117.612C237.572 117.416 237.205 117.318 236.78 117.318C236.313 117.318 235.909 117.434 235.567 117.666C235.229 117.895 234.969 118.193 234.787 118.561C234.604 118.929 234.513 119.323 234.513 119.744V120.42C234.513 120.997 234.613 121.486 234.812 121.887C235.014 122.285 235.294 122.588 235.652 122.797C236.01 123.002 236.426 123.105 236.9 123.105C237.208 123.105 237.486 123.062 237.735 122.976C237.987 122.886 238.204 122.754 238.386 122.578C238.568 122.399 238.709 122.177 238.809 121.912L239.942 122.23C239.823 122.615 239.622 122.953 239.341 123.244C239.059 123.533 238.711 123.758 238.297 123.92C237.882 124.08 237.417 124.159 236.9 124.159ZM243.02 119.406V124H241.846V116.364H242.98V117.557H243.079C243.258 117.169 243.53 116.857 243.895 116.622C244.259 116.384 244.73 116.264 245.307 116.264C245.824 116.264 246.276 116.37 246.664 116.582C247.052 116.791 247.353 117.109 247.569 117.537C247.784 117.961 247.892 118.498 247.892 119.148V124H246.718V119.227C246.718 118.627 246.563 118.16 246.251 117.825C245.94 117.487 245.512 117.318 244.968 117.318C244.594 117.318 244.259 117.399 243.964 117.562C243.673 117.724 243.442 117.961 243.273 118.273C243.104 118.584 243.02 118.962 243.02 119.406ZM253.237 124.159C252.502 124.159 251.867 123.997 251.333 123.672C250.803 123.344 250.394 122.886 250.105 122.3C249.82 121.71 249.678 121.024 249.678 120.241C249.678 119.459 249.82 118.77 250.105 118.173C250.394 117.573 250.795 117.106 251.309 116.771C251.826 116.433 252.429 116.264 253.118 116.264C253.516 116.264 253.909 116.33 254.296 116.463C254.684 116.596 255.037 116.811 255.355 117.109C255.674 117.404 255.927 117.795 256.116 118.283C256.305 118.77 256.399 119.37 256.399 120.082V120.58H250.513V119.565H255.206C255.206 119.134 255.12 118.75 254.948 118.412C254.779 118.074 254.537 117.807 254.222 117.612C253.91 117.416 253.542 117.318 253.118 117.318C252.651 117.318 252.246 117.434 251.905 117.666C251.567 117.895 251.307 118.193 251.125 118.561C250.942 118.929 250.851 119.323 250.851 119.744V120.42C250.851 120.997 250.951 121.486 251.149 121.887C251.352 122.285 251.632 122.588 251.99 122.797C252.348 123.002 252.764 123.105 253.237 123.105C253.546 123.105 253.824 123.062 254.073 122.976C254.325 122.886 254.542 122.754 254.724 122.578C254.906 122.399 255.047 122.177 255.147 121.912L256.28 122.23C256.161 122.615 255.96 122.953 255.679 123.244C255.397 123.533 255.049 123.758 254.634 123.92C254.22 124.08 253.755 124.159 253.237 124.159ZM258.184 124V116.364H259.318V117.517H259.397C259.536 117.139 259.788 116.833 260.153 116.597C260.518 116.362 260.929 116.244 261.386 116.244C261.472 116.244 261.58 116.246 261.709 116.249C261.838 116.253 261.936 116.258 262.002 116.264V117.457C261.963 117.447 261.871 117.433 261.729 117.413C261.59 117.389 261.442 117.378 261.286 117.378C260.915 117.378 260.584 117.456 260.292 117.612C260.004 117.764 259.775 117.976 259.606 118.248C259.44 118.516 259.358 118.823 259.358 119.168V124H258.184ZM265.64 124.179C265.156 124.179 264.717 124.088 264.323 123.906C263.928 123.72 263.615 123.453 263.383 123.105C263.151 122.754 263.035 122.33 263.035 121.832C263.035 121.395 263.121 121.04 263.294 120.768C263.466 120.493 263.696 120.278 263.985 120.122C264.273 119.966 264.591 119.85 264.939 119.774C265.291 119.695 265.644 119.632 265.998 119.585C266.462 119.526 266.839 119.481 267.127 119.451C267.419 119.418 267.631 119.363 267.763 119.287C267.899 119.211 267.967 119.078 267.967 118.889V118.849C267.967 118.359 267.833 117.978 267.564 117.706C267.299 117.434 266.897 117.298 266.356 117.298C265.796 117.298 265.357 117.421 265.039 117.666C264.721 117.911 264.497 118.173 264.368 118.452L263.254 118.054C263.453 117.59 263.718 117.229 264.049 116.97C264.384 116.708 264.749 116.526 265.143 116.423C265.541 116.317 265.932 116.264 266.316 116.264C266.562 116.264 266.843 116.294 267.162 116.354C267.483 116.41 267.793 116.528 268.091 116.707C268.393 116.886 268.643 117.156 268.842 117.517C269.041 117.878 269.14 118.362 269.14 118.969V124H267.967V122.966H267.907C267.828 123.132 267.695 123.309 267.51 123.498C267.324 123.687 267.077 123.848 266.769 123.98C266.461 124.113 266.084 124.179 265.64 124.179ZM265.819 123.125C266.283 123.125 266.674 123.034 266.993 122.852C267.314 122.669 267.556 122.434 267.718 122.146C267.884 121.857 267.967 121.554 267.967 121.236V120.162C267.917 120.222 267.808 120.276 267.639 120.326C267.473 120.372 267.281 120.414 267.062 120.45C266.847 120.483 266.636 120.513 266.431 120.54C266.229 120.563 266.065 120.583 265.939 120.599C265.634 120.639 265.349 120.704 265.084 120.793C264.822 120.879 264.61 121.01 264.447 121.186C264.288 121.358 264.209 121.594 264.209 121.892C264.209 122.3 264.359 122.608 264.661 122.817C264.966 123.022 265.352 123.125 265.819 123.125ZM274.603 116.364V117.358H270.646V116.364H274.603ZM271.799 114.534H272.972V121.812C272.972 122.144 273.02 122.393 273.116 122.558C273.216 122.721 273.342 122.83 273.494 122.886C273.65 122.939 273.814 122.966 273.986 122.966C274.116 122.966 274.222 122.959 274.305 122.946C274.387 122.929 274.454 122.916 274.503 122.906L274.742 123.96C274.663 123.99 274.552 124.02 274.409 124.05C274.266 124.083 274.086 124.099 273.867 124.099C273.536 124.099 273.211 124.028 272.893 123.886C272.578 123.743 272.316 123.526 272.107 123.234C271.902 122.943 271.799 122.575 271.799 122.131V114.534ZM279.388 124.159C278.699 124.159 278.094 123.995 277.573 123.667C277.056 123.339 276.652 122.88 276.36 122.29C276.072 121.7 275.928 121.01 275.928 120.222C275.928 119.426 276.072 118.732 276.36 118.138C276.652 117.545 277.056 117.085 277.573 116.756C278.094 116.428 278.699 116.264 279.388 116.264C280.077 116.264 280.681 116.428 281.198 116.756C281.718 117.085 282.122 117.545 282.411 118.138C282.702 118.732 282.848 119.426 282.848 120.222C282.848 121.01 282.702 121.7 282.411 122.29C282.122 122.88 281.718 123.339 281.198 123.667C280.681 123.995 280.077 124.159 279.388 124.159ZM279.388 123.105C279.912 123.105 280.343 122.971 280.681 122.702C281.019 122.434 281.269 122.081 281.431 121.643C281.594 121.206 281.675 120.732 281.675 120.222C281.675 119.711 281.594 119.236 281.431 118.795C281.269 118.354 281.019 117.998 280.681 117.726C280.343 117.454 279.912 117.318 279.388 117.318C278.864 117.318 278.434 117.454 278.095 117.726C277.757 117.998 277.507 118.354 277.345 118.795C277.182 119.236 277.101 119.711 277.101 120.222C277.101 120.732 277.182 121.206 277.345 121.643C277.507 122.081 277.757 122.434 278.095 122.702C278.434 122.971 278.864 123.105 279.388 123.105ZM284.639 124V116.364H285.773V117.517H285.852C285.992 117.139 286.243 116.833 286.608 116.597C286.973 116.362 287.384 116.244 287.841 116.244C287.927 116.244 288.035 116.246 288.164 116.249C288.293 116.253 288.391 116.258 288.457 116.264V117.457C288.418 117.447 288.327 117.433 288.184 117.413C288.045 117.389 287.897 117.378 287.742 117.378C287.37 117.378 287.039 117.456 286.747 117.612C286.459 117.764 286.23 117.976 286.061 118.248C285.895 118.516 285.813 118.823 285.813 119.168V124H284.639ZM297.186 116.364V117.358H293.07V116.364H297.186ZM294.303 124V115.31C294.303 114.872 294.406 114.508 294.611 114.216C294.817 113.924 295.083 113.705 295.411 113.56C295.74 113.414 296.086 113.341 296.451 113.341C296.739 113.341 296.974 113.364 297.157 113.411C297.339 113.457 297.475 113.5 297.564 113.54L297.226 114.554C297.166 114.534 297.084 114.509 296.978 114.479C296.875 114.45 296.739 114.435 296.57 114.435C296.182 114.435 295.902 114.532 295.73 114.728C295.561 114.924 295.476 115.21 295.476 115.588V124H294.303ZM301.619 124.159C300.929 124.159 300.324 123.995 299.804 123.667C299.287 123.339 298.882 122.88 298.591 122.29C298.302 121.7 298.158 121.01 298.158 120.222C298.158 119.426 298.302 118.732 298.591 118.138C298.882 117.545 299.287 117.085 299.804 116.756C300.324 116.428 300.929 116.264 301.619 116.264C302.308 116.264 302.911 116.428 303.428 116.756C303.949 117.085 304.353 117.545 304.641 118.138C304.933 118.732 305.079 119.426 305.079 120.222C305.079 121.01 304.933 121.7 304.641 122.29C304.353 122.88 303.949 123.339 303.428 123.667C302.911 123.995 302.308 124.159 301.619 124.159ZM301.619 123.105C302.142 123.105 302.573 122.971 302.911 122.702C303.249 122.434 303.499 122.081 303.662 121.643C303.824 121.206 303.905 120.732 303.905 120.222C303.905 119.711 303.824 119.236 303.662 118.795C303.499 118.354 303.249 117.998 302.911 117.726C302.573 117.454 302.142 117.318 301.619 117.318C301.095 117.318 300.664 117.454 300.326 117.726C299.988 117.998 299.738 118.354 299.575 118.795C299.413 119.236 299.332 119.711 299.332 120.222C299.332 120.732 299.413 121.206 299.575 121.643C299.738 122.081 299.988 122.434 300.326 122.702C300.664 122.971 301.095 123.105 301.619 123.105ZM306.87 124V116.364H308.003V117.517H308.083C308.222 117.139 308.474 116.833 308.839 116.597C309.203 116.362 309.614 116.244 310.071 116.244C310.158 116.244 310.265 116.246 310.395 116.249C310.524 116.253 310.622 116.258 310.688 116.264V117.457C310.648 117.447 310.557 117.433 310.415 117.413C310.275 117.389 310.128 117.378 309.972 117.378C309.601 117.378 309.269 117.456 308.978 117.612C308.689 117.764 308.461 117.976 308.292 118.248C308.126 118.516 308.043 118.823 308.043 119.168V124H306.87ZM316.175 124V113.818H317.408V122.906H322.141V124H316.175ZM326.138 124.179C325.655 124.179 325.215 124.088 324.821 123.906C324.427 123.72 324.113 123.453 323.881 123.105C323.649 122.754 323.533 122.33 323.533 121.832C323.533 121.395 323.619 121.04 323.792 120.768C323.964 120.493 324.195 120.278 324.483 120.122C324.771 119.966 325.089 119.85 325.437 119.774C325.789 119.695 326.142 119.632 326.496 119.585C326.96 119.526 327.337 119.481 327.625 119.451C327.917 119.418 328.129 119.363 328.261 119.287C328.397 119.211 328.465 119.078 328.465 118.889V118.849C328.465 118.359 328.331 117.978 328.062 117.706C327.797 117.434 327.395 117.298 326.854 117.298C326.294 117.298 325.855 117.421 325.537 117.666C325.219 117.911 324.995 118.173 324.866 118.452L323.752 118.054C323.951 117.59 324.216 117.229 324.547 116.97C324.882 116.708 325.247 116.526 325.641 116.423C326.039 116.317 326.43 116.264 326.815 116.264C327.06 116.264 327.342 116.294 327.66 116.354C327.981 116.41 328.291 116.528 328.589 116.707C328.891 116.886 329.141 117.156 329.34 117.517C329.539 117.878 329.638 118.362 329.638 118.969V124H328.465V122.966H328.405C328.326 123.132 328.193 123.309 328.008 123.498C327.822 123.687 327.575 123.848 327.267 123.98C326.959 124.113 326.583 124.179 326.138 124.179ZM326.317 123.125C326.781 123.125 327.172 123.034 327.491 122.852C327.812 122.669 328.054 122.434 328.217 122.146C328.382 121.857 328.465 121.554 328.465 121.236V120.162C328.415 120.222 328.306 120.276 328.137 120.326C327.971 120.372 327.779 120.414 327.56 120.45C327.345 120.483 327.134 120.513 326.929 120.54C326.727 120.563 326.563 120.583 326.437 120.599C326.132 120.639 325.847 120.704 325.582 120.793C325.32 120.879 325.108 121.01 324.945 121.186C324.786 121.358 324.707 121.594 324.707 121.892C324.707 122.3 324.857 122.608 325.159 122.817C325.464 123.022 325.85 123.125 326.317 123.125ZM331.78 124V116.364H332.913V117.517H332.993C333.132 117.139 333.384 116.833 333.749 116.597C334.113 116.362 334.524 116.244 334.982 116.244C335.068 116.244 335.176 116.246 335.305 116.249C335.434 116.253 335.532 116.258 335.598 116.264V117.457C335.558 117.447 335.467 117.433 335.325 117.413C335.185 117.389 335.038 117.378 334.882 117.378C334.511 117.378 334.18 117.456 333.888 117.612C333.6 117.764 333.371 117.976 333.202 118.248C333.036 118.516 332.953 118.823 332.953 119.168V124H331.78ZM339.236 124.179C338.752 124.179 338.313 124.088 337.919 123.906C337.524 123.72 337.211 123.453 336.979 123.105C336.747 122.754 336.631 122.33 336.631 121.832C336.631 121.395 336.717 121.04 336.889 120.768C337.062 120.493 337.292 120.278 337.581 120.122C337.869 119.966 338.187 119.85 338.535 119.774C338.886 119.695 339.239 119.632 339.594 119.585C340.058 119.526 340.434 119.481 340.723 119.451C341.014 119.418 341.226 119.363 341.359 119.287C341.495 119.211 341.563 119.078 341.563 118.889V118.849C341.563 118.359 341.429 117.978 341.16 117.706C340.895 117.434 340.492 117.298 339.952 117.298C339.392 117.298 338.953 117.421 338.634 117.666C338.316 117.911 338.093 118.173 337.963 118.452L336.85 118.054C337.049 117.59 337.314 117.229 337.645 116.97C337.98 116.708 338.344 116.526 338.739 116.423C339.137 116.317 339.528 116.264 339.912 116.264C340.157 116.264 340.439 116.294 340.757 116.354C341.079 116.41 341.389 116.528 341.687 116.707C341.989 116.886 342.239 117.156 342.438 117.517C342.637 117.878 342.736 118.362 342.736 118.969V124H341.563V122.966H341.503C341.424 123.132 341.291 123.309 341.105 123.498C340.92 123.687 340.673 123.848 340.365 123.98C340.056 124.113 339.68 124.179 339.236 124.179ZM339.415 123.125C339.879 123.125 340.27 123.034 340.588 122.852C340.91 122.669 341.152 122.434 341.314 122.146C341.48 121.857 341.563 121.554 341.563 121.236V120.162C341.513 120.222 341.404 120.276 341.235 120.326C341.069 120.372 340.877 120.414 340.658 120.45C340.443 120.483 340.232 120.513 340.027 120.54C339.824 120.563 339.66 120.583 339.534 120.599C339.229 120.639 338.944 120.704 338.679 120.793C338.417 120.879 338.205 121.01 338.043 121.186C337.884 121.358 337.804 121.594 337.804 121.892C337.804 122.3 337.955 122.608 338.257 122.817C338.562 123.022 338.948 123.125 339.415 123.125ZM350.848 116.364L348.025 124H346.831L344.008 116.364H345.28L347.388 122.449H347.468L349.576 116.364H350.848ZM355.325 124.159C354.59 124.159 353.955 123.997 353.421 123.672C352.891 123.344 352.482 122.886 352.193 122.3C351.908 121.71 351.766 121.024 351.766 120.241C351.766 119.459 351.908 118.77 352.193 118.173C352.482 117.573 352.883 117.106 353.396 116.771C353.913 116.433 354.517 116.264 355.206 116.264C355.604 116.264 355.997 116.33 356.384 116.463C356.772 116.596 357.125 116.811 357.443 117.109C357.761 117.404 358.015 117.795 358.204 118.283C358.393 118.77 358.487 119.37 358.487 120.082V120.58H352.601V119.565H357.294C357.294 119.134 357.208 118.75 357.036 118.412C356.867 118.074 356.625 117.807 356.31 117.612C355.998 117.416 355.63 117.318 355.206 117.318C354.739 117.318 354.334 117.434 353.993 117.666C353.655 117.895 353.395 118.193 353.212 118.561C353.03 118.929 352.939 119.323 352.939 119.744V120.42C352.939 120.997 353.038 121.486 353.237 121.887C353.439 122.285 353.72 122.588 354.078 122.797C354.435 123.002 354.851 123.105 355.325 123.105C355.634 123.105 355.912 123.062 356.161 122.976C356.412 122.886 356.63 122.754 356.812 122.578C356.994 122.399 357.135 122.177 357.234 121.912L358.368 122.23C358.249 122.615 358.048 122.953 357.766 123.244C357.485 123.533 357.137 123.758 356.722 123.92C356.308 124.08 355.842 124.159 355.325 124.159ZM361.445 113.818V124H360.272V113.818H361.445Z" fill="white" fill-opacity="0.8"/>
</g>
<defs>
<linearGradient id="paint0_linear_64_2" x1="0" y1="0" x2="480" y2="140" gradientUnits="userSpaceOnUse">
<stop stop-color="#4F46E5"/>
<stop offset="0.55" stop-color="#9333EA"/>
<stop offset="1" stop-color="#DB2777"/>
</linearGradient>
<linearGradient id="paint1_linear_64_2" x1="5.36947e-06" y1="1.09056e-05" x2="480" y2="140" gradientUnits="userSpaceOnUse">
<stop stop-color="#6366F1"/>
<stop offset="0.55" stop-color="#8B5CF6"/>
<stop offset="1" stop-color="#EC4899"/>
</linearGradient>
<linearGradient id="paint2_linear_64_2" x1="-1.96998e-06" y1="1.12643e-05" x2="480" y2="140" gradientUnits="userSpaceOnUse">
<stop stop-color="#6366F1"/>
<stop offset="0.55" stop-color="#8B5CF6"/>
<stop offset="1" stop-color="#EC4899"/>
</linearGradient>
<clipPath id="clip0_64_2">
<rect width="480" height="140" rx="15" fill="white"/>
</clipPath>
</defs>
</svg>
